<svg version="1.1" id="Layer_1" xmlns="http://www.w3.org/2000/svg" xmlns:xlink="http://www.w3.org/1999/xlink" x="0px" y="0px"
	 width="100%" viewBox="0 0 500 242" enable-background="new 0 0 500 242" xml:space="preserve">
<path fill="none" opacity="1.000000" stroke="none" 
	d="
M298.000000,243.000000 
	C198.666672,243.000000 99.833336,243.000000 1.000000,243.000000 
	C1.000000,162.333328 1.000000,81.666664 1.000000,1.000000 
	C167.666672,1.000000 334.333344,1.000000 501.000000,1.000000 
	C501.000000,81.666664 501.000000,162.333328 501.000000,243.000000 
	C433.500000,243.000000 366.000000,243.000000 298.000000,243.000000 
M243.811813,119.337135 
	C257.596710,103.313347 271.381592,87.289558 285.870636,70.447258 
	C270.853424,71.439774 257.234528,72.168289 243.660675,73.395119 
	C241.216568,73.616020 238.411285,75.397163 236.704681,77.295662 
	C227.466171,87.573013 218.528549,98.120598 209.459961,108.551331 
	C208.694733,109.431503 207.728394,110.136826 206.347412,111.381172 
	C203.797302,75.902641 201.310410,41.303646 198.805847,6.458870 
	C186.667877,7.335452 175.107925,8.170290 163.207458,9.029719 
	C167.338425,66.936798 171.428391,124.269112 175.540939,181.918015 
	C187.626236,181.054596 199.171463,180.229767 211.120880,179.376068 
	C210.186951,165.723221 209.287338,152.571869 208.329056,138.563049 
	C209.936584,139.819672 210.848679,140.470856 211.692139,141.201263 
	C224.154724,151.993362 236.537079,162.880417 249.143951,173.501022 
	C250.942581,175.016266 253.823853,175.965668 256.194489,175.947189 
	C263.175079,175.892807 270.149414,174.970993 277.129333,174.930893 
	C279.426453,174.917694 282.275482,175.981415 283.942261,177.544312 
	C291.450256,184.584427 302.266571,186.489059 311.200775,181.856979 
	C319.895966,177.348785 325.058350,167.389343 323.480408,158.166687 
	C321.609680,147.232773 313.851501,139.798508 302.723206,138.276093 
	C293.693207,137.040756 283.951355,142.688858 279.619446,151.658432 
	C279.073578,152.788727 278.470886,153.891556 277.710297,155.363617 
	C265.184570,144.503754 253.021027,133.957932 240.644943,123.227821 
	C241.715118,121.889069 242.524475,120.876587 243.811813,119.337135 
M443.026245,225.429459 
	C435.445038,216.546799 441.669983,209.039948 445.507446,201.049866 
	C438.842407,203.093719 439.100708,210.680832 434.097412,214.648758 
	C434.097412,210.793732 434.223480,207.366974 434.020081,203.959885 
	C433.959564,202.946136 432.974396,201.987564 432.412872,201.003708 
	C431.746613,201.913269 430.516907,202.813477 430.501617,203.733871 
	C430.354889,212.559204 430.355011,221.388870 430.499176,230.214279 
	C430.514252,231.136566 431.729218,232.039246 432.387451,232.951019 
	C432.957458,231.978485 433.904877,231.051086 434.027557,230.025055 
	C434.416626,226.771912 434.497772,223.481934 434.745087,219.434784 
	C440.268341,223.554962 438.962280,231.335999 446.290680,232.286011 
	C445.304352,230.231400 444.318054,228.176788 443.026245,225.429459 
M345.010651,204.400757 
	C343.974060,203.239410 343.122650,201.646057 341.826447,201.090393 
	C341.129242,200.791504 338.860931,202.102432 338.676697,202.976761 
	C336.603271,212.817688 334.797119,222.714966 332.919159,232.597092 
	C333.280792,232.840729 333.642426,233.084366 334.004059,233.328003 
	C334.889008,232.686462 336.467377,232.115112 336.540619,231.391403 
	C336.884155,227.998215 338.132019,226.516785 341.887756,226.615723 
	C345.352753,226.707016 345.941772,228.385345 346.429535,231.135223 
	C346.572937,231.943695 348.390259,232.455261 350.665619,233.858505 
	C348.591217,223.150406 346.855530,214.190704 345.010651,204.400757 
M245.867233,229.839859 
	C244.949005,228.199722 244.079681,226.529160 243.087723,224.934891 
	C242.708069,224.324753 242.048065,223.889038 241.515808,223.373810 
	C240.981186,224.051529 240.106674,224.667160 239.969620,225.417496 
	C239.304535,229.058502 241.760376,232.464890 245.351990,233.144943 
	C249.818802,233.990707 253.276489,231.893280 253.996048,227.781067 
	C254.744293,223.504990 253.499710,219.946945 250.120804,217.074646 
	C248.106964,215.362778 245.550079,213.664444 244.691620,211.406967 
	C243.939346,209.428726 244.385849,205.509735 245.776138,204.522263 
	C248.372299,202.678223 250.158051,204.976746 250.912445,207.828415 
	C251.093521,208.512909 252.156723,208.964081 252.814224,209.522552 
	C253.236893,208.747711 254.217896,207.664062 253.988739,207.249710 
	C252.786331,205.075577 251.552383,201.678040 249.810776,201.334473 
	C247.213379,200.822083 243.222321,201.623657 241.549057,203.448090 
	C238.619919,206.641922 239.292587,211.015381 242.083740,214.440720 
	C244.068375,216.876282 246.730835,218.752686 248.775238,221.147980 
	C251.813019,224.707123 250.830490,228.371307 245.867233,229.839859 
M396.819977,205.224396 
	C395.139648,201.183960 392.063293,199.810455 387.955780,200.850525 
	C384.082336,201.831299 382.884583,204.770538 382.894897,208.444931 
	C382.911255,214.269135 382.793701,220.096390 382.947021,225.916718 
	C383.074615,230.762344 385.550323,233.246307 389.870605,233.317444 
	C394.414825,233.392242 397.051483,230.784912 397.059814,225.728119 
	C397.062286,224.224411 396.055481,222.719040 395.511108,221.214447 
	C394.969116,222.564682 394.633789,224.055130 393.835754,225.231705 
	C392.689514,226.921677 391.206177,228.382996 389.866699,229.941910 
	C388.754425,228.374084 386.819885,226.874695 386.682709,225.225739 
	C386.256378,220.101852 386.425323,214.919281 386.541748,209.763489 
	C386.595703,207.373947 386.179504,204.327423 389.792328,204.053726 
	C393.288269,203.788879 393.518005,206.517349 393.964355,209.073807 
	C394.122833,209.981628 395.006744,210.762802 395.559448,211.601807 
	C396.092590,210.739548 396.852936,209.935791 397.094299,208.998383 
	C397.331177,208.078522 397.040405,207.022797 396.819977,205.224396 
M105.139000,205.675278 
	C104.636093,204.132843 104.133186,202.590393 103.630287,201.047958 
	C103.025223,202.491165 101.937836,203.921127 101.897781,205.379852 
	C101.715027,212.034515 101.739464,218.698822 101.859238,225.356598 
	C101.957230,230.803589 104.117004,233.127670 108.745445,233.187759 
	C113.574051,233.250458 115.911530,230.782211 116.002159,225.153732 
	C116.112045,218.329086 116.105560,211.499985 115.970383,204.676346 
	C115.946228,203.456696 115.052414,202.254242 114.560150,201.043854 
	C113.978539,202.344208 112.932991,203.631012 112.894508,204.947250 
	C112.714539,211.102417 112.920509,217.268539 112.760483,223.424805 
	C112.690590,226.113525 113.143990,229.755325 109.066582,229.858047 
	C104.924706,229.962402 105.265938,226.335876 105.190994,223.619980 
	C105.034912,217.963333 105.140900,212.299469 105.139000,205.675278 
M64.231941,219.080353 
	C65.269470,218.577164 66.306999,218.073975 67.344513,217.570801 
	C66.362335,217.008942 65.439835,216.217621 64.383011,215.942810 
	C63.033775,215.591934 61.576092,215.658112 60.392406,215.562836 
	C60.392406,211.469131 60.392406,207.908905 60.392406,204.076599 
	C62.937641,204.076599 65.090096,204.173920 67.223396,204.014648 
	C67.828400,203.969467 68.377525,203.175980 68.952278,202.725677 
	C68.360046,202.130051 67.790352,201.047760 67.171860,201.019119 
	C63.611446,200.854263 60.039482,200.938782 56.150734,200.938782 
	C56.150734,211.170166 56.070389,220.612381 56.260597,230.049149 
	C56.282394,231.130722 57.816006,232.181824 58.648640,233.247055 
	C59.096889,232.934082 59.545143,232.621109 59.993393,232.308136 
	C59.993393,229.007782 60.137939,225.699097 59.947853,222.409714 
	C59.794624,219.758087 60.810558,218.729477 64.231941,219.080353 
M198.237595,201.305557 
	C197.161530,201.979385 195.163086,202.633789 195.148422,203.329971 
	C194.943451,213.062576 195.009430,222.800888 195.009430,233.027847 
	C198.797882,233.027847 202.079163,233.135818 205.344574,232.955704 
	C206.215546,232.907684 207.037857,231.977737 207.882523,231.452698 
	C206.955551,230.828217 206.088348,229.817307 205.088684,229.662643 
	C203.216309,229.372971 201.267212,229.579269 198.707230,229.579269 
	C198.707230,219.913757 198.707230,210.991074 198.237595,201.305557 
M291.953827,213.548294 
	C291.953979,218.712418 291.841095,223.880722 292.031830,229.037796 
	C292.080994,230.366760 293.084900,231.660400 293.650238,232.970261 
	C294.341522,231.581436 295.323761,230.256256 295.645355,228.786545 
	C295.993195,227.196793 295.724426,225.472076 295.724426,223.806229 
	C295.724457,217.372177 295.724426,210.938126 295.724426,204.402695 
	C297.236145,204.264099 298.102570,204.348526 298.836700,204.076279 
	C299.775360,203.728195 300.607361,203.092499 301.485321,202.580750 
	C300.491425,202.022415 299.517212,201.028198 298.500183,200.982269 
	C294.407959,200.797409 290.302521,200.905731 286.201965,200.905731 
	C286.054077,201.588989 285.906219,202.272232 285.758362,202.955490 
	C287.667511,203.540054 289.576660,204.124634 291.953796,204.852509 
	C291.953796,207.307343 291.953796,209.936951 291.953827,213.548294 
M153.081802,211.527603 
	C153.074738,208.696106 153.172073,205.857727 152.986740,203.037949 
	C152.940796,202.338669 151.979111,201.699585 151.438370,201.032822 
	C150.876022,201.692459 149.853058,202.334274 149.826706,203.014664 
	C149.665710,207.172760 149.725555,211.339615 149.721863,215.503540 
	C149.716751,221.245209 149.720581,226.986893 149.720581,232.479828 
	C154.386063,232.479828 158.203857,232.479828 162.021652,232.479828 
	C162.121307,231.865845 162.220963,231.251846 162.320602,230.637863 
	C159.305527,230.192505 156.290436,229.747131 153.081848,229.273193 
	C153.081848,223.497208 153.081848,218.008316 153.081802,211.527603 
z"/>
<path fill="#6467F1" opacity="1.000000" stroke="none" 
	d="
M243.572815,119.600624 
	C242.524475,120.876587 241.715118,121.889069 240.644943,123.227821 
	C253.021027,133.957932 265.184570,144.503754 277.710297,155.363617 
	C278.470886,153.891556 279.073578,152.788727 279.619446,151.658432 
	C283.951355,142.688858 293.693207,137.040756 302.723206,138.276093 
	C313.851501,139.798508 321.609680,147.232773 323.480408,158.166687 
	C325.058350,167.389343 319.895966,177.348785 311.200775,181.856979 
	C302.266571,186.489059 291.450256,184.584427 283.942261,177.544312 
	C282.275482,175.981415 279.426453,174.917694 277.129333,174.930893 
	C270.149414,174.970993 263.175079,175.892807 256.194489,175.947189 
	C253.823853,175.965668 250.942581,175.016266 249.143951,173.501022 
	C236.537079,162.880417 224.154724,151.993362 211.692139,141.201263 
	C210.848679,140.470856 209.936584,139.819672 208.329056,138.563049 
	C209.287338,152.571869 210.186951,165.723221 211.120880,179.376068 
	C199.171463,180.229767 187.626236,181.054596 175.540939,181.918015 
	C171.428391,124.269112 167.338425,66.936798 163.207458,9.029719 
	C175.107925,8.170290 186.667877,7.335452 198.805847,6.458870 
	C201.310410,41.303646 203.797302,75.902641 206.347412,111.381172 
	C207.728394,110.136826 208.694733,109.431503 209.459961,108.551331 
	C218.528549,98.120598 227.466171,87.573013 236.704681,77.295662 
	C238.411285,75.397163 241.216568,73.616020 243.660675,73.395119 
	C257.234528,72.168289 270.853424,71.439774 285.870636,70.447258 
	C271.381592,87.289558 257.596710,103.313347 243.572815,119.600624 
z"/>
<path fill="#696CF2" opacity="1.000000" stroke="none" 
	d="
M443.179016,225.775818 
	C444.318054,228.176788 445.304352,230.231400 446.290680,232.286011 
	C438.962280,231.335999 440.268341,223.554962 434.745087,219.434784 
	C434.497772,223.481934 434.416626,226.771912 434.027557,230.025055 
	C433.904877,231.051086 432.957458,231.978485 432.387451,232.951019 
	C431.729218,232.039246 430.514252,231.136566 430.499176,230.214279 
	C430.355011,221.388870 430.354889,212.559204 430.501617,203.733871 
	C430.516907,202.813477 431.746613,201.913269 432.412872,201.003708 
	C432.974396,201.987564 433.959564,202.946136 434.020081,203.959885 
	C434.223480,207.366974 434.097412,210.793732 434.097412,214.648758 
	C439.100708,210.680832 438.842407,203.093719 445.507446,201.049866 
	C441.669983,209.039948 435.445038,216.546799 443.179016,225.775818 
z"/>
<path fill="#7073F2" opacity="1.000000" stroke="none" 
	d="
M345.065247,204.815872 
	C346.855530,214.190704 348.591217,223.150406 350.665619,233.858505 
	C348.390259,232.455261 346.572937,231.943695 346.429535,231.135223 
	C345.941772,228.385345 345.352753,226.707016 341.887756,226.615723 
	C338.132019,226.516785 336.884155,227.998215 336.540619,231.391403 
	C336.467377,232.115112 334.889008,232.686462 334.004059,233.328003 
	C333.642426,233.084366 333.280792,232.840729 332.919159,232.597092 
	C334.797119,222.714966 336.603271,212.817688 338.676697,202.976761 
	C338.860931,202.102432 341.129242,200.791504 341.826447,201.090393 
	C343.122650,201.646057 343.974060,203.239410 345.065247,204.815872 
M343.071625,213.434998 
	C342.628143,211.223755 342.184692,209.012497 341.741211,206.801254 
	C341.543823,206.803055 341.346436,206.804840 341.149048,206.806641 
	C340.131317,212.079285 339.113586,217.351929 338.041962,222.903885 
	C340.601654,222.903885 342.629913,222.903885 344.912689,222.903885 
	C344.293243,219.754013 343.752716,217.005386 343.071625,213.434998 
z"/>
<path fill="#6C6FF2" opacity="1.000000" stroke="none" 
	d="
M246.271347,229.892029 
	C250.830490,228.371307 251.813019,224.707123 248.775238,221.147980 
	C246.730835,218.752686 244.068375,216.876282 242.083740,214.440720 
	C239.292587,211.015381 238.619919,206.641922 241.549057,203.448090 
	C243.222321,201.623657 247.213379,200.822083 249.810776,201.334473 
	C251.552383,201.678040 252.786331,205.075577 253.988739,207.249710 
	C254.217896,207.664062 253.236893,208.747711 252.814224,209.522552 
	C252.156723,208.964081 251.093521,208.512909 250.912445,207.828415 
	C250.158051,204.976746 248.372299,202.678223 245.776138,204.522263 
	C244.385849,205.509735 243.939346,209.428726 244.691620,211.406967 
	C245.550079,213.664444 248.106964,215.362778 250.120804,217.074646 
	C253.499710,219.946945 254.744293,223.504990 253.996048,227.781067 
	C253.276489,231.893280 249.818802,233.990707 245.351990,233.144943 
	C241.760376,232.464890 239.304535,229.058502 239.969620,225.417496 
	C240.106674,224.667160 240.981186,224.051529 241.515808,223.373810 
	C242.048065,223.889038 242.708069,224.324753 243.087723,224.934891 
	C244.079681,226.529160 244.949005,228.199722 246.271347,229.892029 
z"/>
<path fill="#696CF1" opacity="1.000000" stroke="none" 
	d="
M396.900574,205.625549 
	C397.040405,207.022797 397.331177,208.078522 397.094299,208.998383 
	C396.852936,209.935791 396.092590,210.739548 395.559448,211.601807 
	C395.006744,210.762802 394.122833,209.981628 393.964355,209.073807 
	C393.518005,206.517349 393.288269,203.788879 389.792328,204.053726 
	C386.179504,204.327423 386.595703,207.373947 386.541748,209.763489 
	C386.425323,214.919281 386.256378,220.101852 386.682709,225.225739 
	C386.819885,226.874695 388.754425,228.374084 389.866699,229.941910 
	C391.206177,228.382996 392.689514,226.921677 393.835754,225.231705 
	C394.633789,224.055130 394.969116,222.564682 395.511108,221.214447 
	C396.055481,222.719040 397.062286,224.224411 397.059814,225.728119 
	C397.051483,230.784912 394.414825,233.392242 389.870605,233.317444 
	C385.550323,233.246307 383.074615,230.762344 382.947021,225.916718 
	C382.793701,220.096390 382.911255,214.269135 382.894897,208.444931 
	C382.884583,204.770538 384.082336,201.831299 387.955780,200.850525 
	C392.063293,199.810455 395.139648,201.183960 396.900574,205.625549 
z"/>
<path fill="#6668F1" opacity="1.000000" stroke="none" 
	d="
M105.139099,206.156921 
	C105.140900,212.299469 105.034912,217.963333 105.190994,223.619980 
	C105.265938,226.335876 104.924706,229.962402 109.066582,229.858047 
	C113.143990,229.755325 112.690590,226.113525 112.760483,223.424805 
	C112.920509,217.268539 112.714539,211.102417 112.894508,204.947250 
	C112.932991,203.631012 113.978539,202.344208 114.560150,201.043854 
	C115.052414,202.254242 115.946228,203.456696 115.970383,204.676346 
	C116.105560,211.499985 116.112045,218.329086 116.002159,225.153732 
	C115.911530,230.782211 113.574051,233.250458 108.745445,233.187759 
	C104.117004,233.127670 101.957230,230.803589 101.859238,225.356598 
	C101.739464,218.698822 101.715027,212.034515 101.897781,205.379852 
	C101.937836,203.921127 103.025223,202.491165 103.630287,201.047958 
	C104.133186,202.590393 104.636093,204.132843 105.139099,206.156921 
z"/>
<path fill="#6E71F2" opacity="1.000000" stroke="none" 
	d="
M63.803108,219.081116 
	C60.810558,218.729477 59.794624,219.758087 59.947853,222.409714 
	C60.137939,225.699097 59.993393,229.007782 59.993393,232.308136 
	C59.545143,232.621109 59.096889,232.934082 58.648640,233.247055 
	C57.816006,232.181824 56.282394,231.130722 56.260597,230.049149 
	C56.070389,220.612381 56.150734,211.170166 56.150734,200.938782 
	C60.039482,200.938782 63.611446,200.854263 67.171860,201.019119 
	C67.790352,201.047760 68.360046,202.130051 68.952271,202.725677 
	C68.377525,203.175980 67.828400,203.969467 67.223396,204.014648 
	C65.090096,204.173920 62.937641,204.076599 60.392406,204.076599 
	C60.392406,207.908905 60.392406,211.469131 60.392406,215.562836 
	C61.576092,215.658112 63.033775,215.591934 64.383011,215.942810 
	C65.439835,216.217621 66.362335,217.008942 67.344521,217.570801 
	C66.306999,218.073975 65.269470,218.577164 63.803108,219.081116 
z"/>
<path fill="#7072F2" opacity="1.000000" stroke="none" 
	d="
M198.472412,201.686981 
	C198.707230,210.991074 198.707230,219.913757 198.707230,229.579269 
	C201.267212,229.579269 203.216309,229.372971 205.088684,229.662643 
	C206.088348,229.817307 206.955551,230.828217 207.882523,231.452698 
	C207.037857,231.977737 206.215546,232.907684 205.344574,232.955704 
	C202.079163,233.135818 198.797882,233.027847 195.009430,233.027847 
	C195.009430,222.800888 194.943451,213.062576 195.148422,203.329971 
	C195.163086,202.633789 197.161530,201.979385 198.472412,201.686981 
z"/>
<path fill="#7174F2" opacity="1.000000" stroke="none" 
	d="
M291.953796,213.057434 
	C291.953796,209.936951 291.953796,207.307343 291.953796,204.852509 
	C289.576660,204.124634 287.667511,203.540054 285.758362,202.955490 
	C285.906219,202.272232 286.054077,201.588989 286.201965,200.905731 
	C290.302521,200.905731 294.407959,200.797409 298.500183,200.982269 
	C299.517212,201.028198 300.491425,202.022415 301.485321,202.580750 
	C300.607361,203.092499 299.775360,203.728195 298.836700,204.076279 
	C298.102570,204.348526 297.236145,204.264099 295.724426,204.402695 
	C295.724426,210.938126 295.724457,217.372177 295.724426,223.806229 
	C295.724426,225.472076 295.993195,227.196793 295.645355,228.786545 
	C295.323761,230.256256 294.341522,231.581436 293.650238,232.970261 
	C293.084900,231.660400 292.080994,230.366760 292.031830,229.037796 
	C291.841095,223.880722 291.953979,218.712418 291.953796,213.057434 
z"/>
<path fill="#6366F1" opacity="1.000000" stroke="none" 
	d="
M153.081818,212.023514 
	C153.081848,218.008316 153.081848,223.497208 153.081848,229.273193 
	C156.290436,229.747131 159.305527,230.192505 162.320602,230.637863 
	C162.220963,231.251846 162.121307,231.865845 162.021652,232.479828 
	C158.203857,232.479828 154.386063,232.479828 149.720581,232.479828 
	C149.720581,226.986893 149.716751,221.245209 149.721863,215.503540 
	C149.725555,211.339615 149.665710,207.172760 149.826706,203.014664 
	C149.853058,202.334274 150.876022,201.692459 151.438370,201.032822 
	C151.979111,201.699585 152.940796,202.338669 152.986740,203.037949 
	C153.172073,205.857727 153.074738,208.696106 153.081818,212.023514 
z"/>
<path fill="none" opacity="1.000000" stroke="none" 
	d="
M343.141907,213.845886 
	C343.752716,217.005386 344.293243,219.754013 344.912689,222.903885 
	C342.629913,222.903885 340.601654,222.903885 338.041962,222.903885 
	C339.113586,217.351929 340.131317,212.079285 341.149048,206.806641 
	C341.346436,206.804840 341.543823,206.803055 341.741211,206.801254 
	C342.184692,209.012497 342.628143,211.223755 343.141907,213.845886 
z"/>
</svg>