<svg version="1.1" id="Layer_1" xmlns="http://www.w3.org/2000/svg" xmlns:xlink="http://www.w3.org/1999/xlink" x="0px" y="0px"
	 width="100%" viewBox="0 0 900 900" enable-background="new 0 0 900 900" xml:space="preserve">
<path fill="#FFC51C" opacity="1.000000" stroke="none" 
	d="
M444.000000,901.000000 
	C296.000000,901.000000 148.500000,901.000000 1.000000,901.000000 
	C1.000000,601.000000 1.000000,301.000000 1.000000,1.000000 
	C301.000000,1.000000 601.000000,1.000000 901.000000,1.000000 
	C901.000000,301.000000 901.000000,601.000000 901.000000,901.000000 
	C748.833313,901.000000 596.666687,901.000000 444.000000,901.000000 
M499.378448,372.917145 
	C499.130737,373.210876 498.882996,373.504639 498.844879,373.812836 
	C498.844879,373.812836 498.845398,373.602783 498.231232,373.711151 
	C497.801392,374.131256 497.371582,374.551392 496.994385,375.000000 
	C496.994385,375.000000 496.994263,374.940155 496.415863,374.998077 
	C496.191681,375.294250 495.967499,375.590454 495.847137,375.869843 
	C495.847137,375.869843 495.819061,375.768463 495.223236,375.928833 
	C494.472839,376.608337 493.722443,377.287842 492.464813,378.063080 
	C492.270599,378.334229 492.076416,378.605377 491.372650,378.980103 
	C491.177124,379.252197 490.981598,379.524292 490.180145,379.982819 
	C489.122864,380.989441 488.065613,381.996094 486.363831,383.198883 
	C480.583923,389.141663 474.804016,395.084412 468.321808,400.966003 
	C467.092468,399.889893 465.767731,398.904388 464.647919,397.724335 
	C441.557465,373.392212 414.009521,356.419922 381.411255,348.247833 
	C372.181091,345.933899 362.523285,345.325897 352.713806,343.476776 
	C352.163971,343.410034 351.614105,343.343292 350.245270,342.991730 
	C338.467743,343.393311 326.690216,343.794891 313.969177,344.210876 
	C312.330780,344.447113 310.686798,344.650024 309.054871,344.924652 
	C287.833038,348.495300 267.797882,355.303894 248.492279,366.705933 
	C248.046326,364.733398 247.214172,362.761505 247.211029,360.788269 
	C247.135910,313.627716 247.152191,266.467041 247.144867,219.306366 
	C247.143692,211.673355 244.701157,209.236038 236.943176,209.226807 
	C217.112396,209.203217 197.281570,209.211929 177.450760,209.217163 
	C167.216034,209.219849 164.749649,211.660889 164.749344,221.844254 
	C164.746429,318.998566 164.702103,416.152924 164.836945,513.307068 
	C164.848923,521.931702 165.512573,530.632935 166.774399,539.165344 
	C173.168594,582.403076 193.530228,618.108093 227.208755,645.630371 
	C271.607971,681.913635 322.426422,692.953430 378.201263,680.445190 
	C388.095428,678.226257 397.455109,673.624023 407.804016,670.041992 
	C412.916595,667.411499 418.029205,664.781006 422.998016,662.077576 
	C422.998016,662.077576 423.125214,662.177002 423.803772,662.077698 
	C424.734772,661.436157 425.665771,660.794678 426.857513,660.219421 
	C426.857513,660.219421 426.954071,659.968323 427.515045,659.934509 
	C427.712646,659.640747 427.910278,659.346924 428.062134,659.105469 
	C428.062134,659.105469 428.122894,659.139282 428.769196,659.082825 
	C429.960754,658.249390 431.152313,657.415894 432.494659,656.623657 
	C432.494659,656.623657 432.576233,656.490356 433.204376,656.288391 
	C445.847351,647.828918 457.428192,638.164551 467.928772,626.155273 
	C469.510864,627.083191 471.290588,627.786682 472.641785,628.976746 
	C479.459961,634.981689 486.166473,641.113403 492.913727,647.083679 
	C492.913727,647.083679 492.798767,647.105469 493.014618,647.740723 
	C516.304016,666.393799 542.768433,678.193542 572.154541,682.718201 
	C584.177551,684.569397 596.560669,684.082092 609.628967,684.759338 
	C610.187256,684.663513 610.745544,684.567688 612.120422,684.724609 
	C636.134766,683.192322 659.096191,677.351501 680.095520,665.653076 
	C691.712402,659.181396 702.201355,650.684937 713.086548,643.081116 
	C713.086548,643.081116 713.089355,643.195068 713.758545,643.049561 
	C719.059937,638.188904 719.272461,633.674500 714.257141,628.633179 
	C700.526794,614.831848 686.750793,601.075867 672.982544,587.312317 
	C665.671387,580.003723 662.500977,579.827209 654.068909,585.766785 
	C629.516113,603.061768 602.759521,607.415955 573.916443,599.205383 
	C559.695129,595.157043 547.773010,587.164368 536.733093,577.258362 
	C536.733093,577.258362 536.463318,577.180359 536.208862,576.591370 
	C530.269287,569.993225 524.236450,563.457214 520.619324,553.887329 
	C523.700867,553.887329 525.811096,553.887146 527.921326,553.887390 
	C604.084595,553.896301 680.247925,553.908386 756.411194,553.910461 
	C767.164062,553.910767 769.372864,551.884644 771.033997,541.260681 
	C773.808167,523.517761 774.019409,505.799133 771.395264,488.003967 
	C764.662903,442.349457 743.224182,404.926544 706.924988,376.795593 
	C660.005798,340.434448 607.251404,331.184814 550.312988,347.384674 
	C539.643250,350.420380 529.776733,356.279510 518.687988,360.838470 
	C514.439575,363.530304 510.191193,366.222137 505.313629,368.912720 
	C504.517181,369.590424 503.720734,370.268158 502.320374,370.859314 
	C501.868347,371.234711 501.416351,371.610077 501.002441,372.006378 
	C501.002441,372.006378 500.995972,371.963318 500.438995,372.042755 
	C500.254944,372.347778 500.070892,372.652802 499.964813,372.975128 
	C499.964813,372.975128 499.979889,372.896698 499.378448,372.917145 
z"/>
<path fill="#1269B0" opacity="1.000000" stroke="none" 
	d="
M611.303833,684.471863 
	C610.745544,684.567688 610.187256,684.663513 608.871094,684.505493 
	C594.279114,682.895020 580.384155,681.978027 566.626160,680.071960 
	C548.830322,677.606567 532.415710,670.747314 516.829895,662.044373 
	C508.603851,657.450928 500.795624,652.109253 492.798767,647.105469 
	C492.798767,647.105469 492.913727,647.083679 492.827454,646.805420 
	C485.759277,639.734070 478.809082,632.907654 471.755585,626.189758 
	C470.866669,625.343201 469.434570,625.066895 468.144165,624.212769 
	C467.000427,622.411316 465.894257,620.968140 464.944305,619.428589 
	C457.255798,606.967712 449.596619,594.488770 441.879395,581.652466 
	C438.457916,570.770996 434.747833,560.344849 431.835144,549.700500 
	C429.980103,542.921082 429.307556,535.818176 428.092346,528.431885 
	C429.878021,514.948303 429.781921,502.022125 425.956238,489.248749 
	C421.402924,474.046021 413.941010,460.650146 402.070984,449.540985 
	C401.359070,448.785492 400.777039,448.291534 399.990906,447.534515 
	C390.869934,441.490173 381.953125,435.708954 373.033600,429.556824 
	C374.393768,427.132111 375.756653,425.078308 377.191315,422.916321 
	C372.186737,420.241608 373.261047,415.029236 373.132812,410.763306 
	C372.503845,389.835052 372.326843,368.893250 372.392334,347.962280 
	C384.597046,351.896606 396.520996,355.498657 408.172302,359.833435 
	C423.704590,365.612061 437.056030,375.125702 449.457458,385.919434 
	C454.676422,390.461884 459.242096,395.748474 464.227081,400.570312 
	C465.590637,401.889221 467.397003,402.750336 469.293488,404.000854 
	C470.701294,405.387482 472.042145,406.453918 472.894745,407.824188 
	C480.368652,419.836060 487.755432,431.902100 495.272278,444.288300 
	C504.763733,465.380096 509.642090,487.203033 509.874634,509.924530 
	C510.028717,524.981323 512.621704,539.339783 519.030029,553.355957 
	C522.920776,562.982666 528.163696,571.215088 536.463318,577.180359 
	C536.463318,577.180359 536.733093,577.258362 536.829346,577.714478 
	C538.752075,580.088318 540.372498,582.270325 542.437927,583.881653 
	C558.460266,596.381287 576.250000,603.740723 596.966553,604.257446 
	C618.953247,604.805908 638.616882,599.155823 656.113098,585.799927 
	C661.448181,581.727356 665.713867,582.231323 670.670471,587.165588 
	C684.115234,600.549683 697.519287,613.974854 710.929382,627.393799 
	C717.504761,633.973511 717.704163,635.517090 713.089355,643.195068 
	C713.089355,643.195068 713.086548,643.081116 712.792114,643.141235 
	C711.131531,644.125122 709.699402,644.965393 708.408691,645.984680 
	C681.515564,667.222107 651.073547,679.634705 616.929321,682.937866 
	C615.022583,683.122314 613.177551,683.945801 611.303833,684.471863 
z"/>
<path fill="#1B4C8B" opacity="1.000000" stroke="none" 
	d="
M428.104797,528.860291 
	C429.307556,535.818176 429.980103,542.921082 431.835144,549.700500 
	C434.747833,560.344849 438.457916,570.770996 441.542542,581.565979 
	C439.945496,580.120911 438.636261,578.399475 436.405334,575.466187 
	C436.106079,580.125549 435.522858,583.630188 435.735535,587.085754 
	C436.144928,593.737183 437.485626,600.354675 437.571899,606.997559 
	C437.724426,618.741089 436.595001,630.530396 437.283752,642.225037 
	C437.600769,647.607605 438.354095,651.898071 432.771973,654.646240 
	C432.475861,654.791992 432.631104,655.854553 432.576233,656.490356 
	C432.576233,656.490356 432.494659,656.623657 432.056427,656.465210 
	C430.453094,657.250916 429.287994,658.195129 428.122894,659.139282 
	C428.122894,659.139282 428.062134,659.105469 427.860352,659.187317 
	C427.368744,659.446838 427.133911,659.679871 426.954071,659.968323 
	C426.954071,659.968323 426.857513,660.219421 426.334106,660.163269 
	C424.915558,660.797119 424.020386,661.487061 423.125214,662.177002 
	C423.125214,662.177002 422.998016,662.077576 422.709869,662.056396 
	C421.937744,661.995361 421.453735,661.955566 420.978699,661.471741 
	C419.992096,652.022217 418.309753,643.029846 418.137268,634.008667 
	C417.718170,612.087402 417.982239,590.152527 418.035126,568.223328 
	C418.039429,566.439819 418.084473,564.412476 418.895844,562.927490 
	C420.404602,560.166016 419.260712,558.956360 417.003540,557.624451 
	C419.606354,551.032104 422.176941,544.810486 424.640259,538.546692 
	C425.894623,535.357056 426.956146,532.091492 428.104797,528.860291 
z"/>
<path fill="#2D6578" opacity="1.000000" stroke="none" 
	d="
M407.061584,670.122314 
	C397.455109,673.624023 388.095428,678.226257 378.201263,680.445190 
	C322.426422,692.953430 271.607971,681.913635 227.208755,645.630371 
	C193.530228,618.108093 173.168594,582.403076 166.774399,539.165344 
	C165.512573,530.632935 164.848923,521.931702 164.836945,513.307068 
	C164.702103,416.152924 164.746429,318.998566 164.749344,221.844254 
	C164.749649,211.660889 167.216034,209.219849 177.450760,209.217163 
	C197.281570,209.211929 217.112396,209.203217 236.943176,209.226807 
	C244.701157,209.236038 247.143692,211.673355 247.144867,219.306366 
	C247.152191,266.467041 247.135910,313.627716 247.211029,360.788269 
	C247.214172,362.761505 248.046326,364.733398 248.754120,366.846252 
	C248.270905,367.068634 247.525848,367.150665 246.587402,366.850830 
	C246.254105,364.319031 245.993164,362.169159 245.992065,360.019196 
	C245.968430,313.527618 245.981125,267.036072 245.966034,220.544495 
	C245.963654,213.178833 243.866959,211.034225 236.440536,211.015076 
	C216.777573,210.964401 197.114166,210.946396 177.451370,211.025055 
	C168.343292,211.061508 165.997421,213.570023 165.997757,222.667221 
	C166.001450,319.649628 165.943649,416.632111 166.068893,513.614380 
	C166.088898,529.104614 168.067795,544.532227 172.459473,559.363037 
	C182.123337,591.998169 199.539200,619.798645 225.510956,642.188660 
	C257.501434,669.767334 294.726471,683.136414 336.638092,683.877563 
	C345.064026,684.026611 353.517151,682.637878 362.372559,681.972534 
	C369.168365,680.628784 375.549316,679.270691 382.302917,677.871338 
	C388.111786,675.883850 393.548004,673.937744 399.350647,671.934265 
	C402.114319,671.128784 404.511505,670.380676 406.964783,669.749390 
	C407.020844,669.866272 407.061584,670.122314 407.061584,670.122314 
z"/>
<path fill="#155CA0" opacity="1.000000" stroke="none" 
	d="
M351.064270,343.276550 
	C351.614105,343.343292 352.163971,343.410034 353.045288,343.941986 
	C353.923157,344.934387 354.469482,345.461548 354.790710,346.283051 
	C350.715515,355.341217 350.737122,364.593750 350.964172,373.911560 
	C351.138184,381.053162 350.972839,388.202484 351.006927,395.348175 
	C351.034668,401.161133 350.513458,407.071747 351.410461,412.753601 
	C352.056885,416.848022 352.468689,420.405731 349.595978,423.888062 
	C342.469086,423.564392 335.760742,423.237610 329.011169,422.515198 
	C328.979248,418.184906 328.995728,414.250305 328.996460,410.315674 
	C328.999695,392.491364 329.018860,374.667023 328.964508,356.842865 
	C328.959564,355.223022 328.456512,353.606964 328.212341,351.984985 
	C327.819489,349.375702 327.449646,346.762909 327.530151,344.123169 
	C332.597534,344.303955 337.209686,344.740082 341.810577,344.643188 
	C344.903381,344.578003 347.980255,343.758545 351.064270,343.276550 
z"/>
<path fill="#2D6578" opacity="1.000000" stroke="none" 
	d="
M536.336060,576.885864 
	C528.163696,571.215088 522.920776,562.982666 519.418579,553.214050 
	C524.219299,552.461670 528.665649,552.217163 533.565430,551.986267 
	C538.721863,551.980347 543.424927,551.960693 548.588013,551.952271 
	C555.032959,551.964417 561.017761,551.965210 567.470947,551.976624 
	C627.896362,552.007202 687.853271,552.027649 747.810242,552.046082 
	C752.306946,552.047485 756.803772,552.052673 761.300293,552.023193 
	C765.199280,551.997620 767.522827,550.143799 768.058105,546.173340 
	C768.741577,541.104248 769.232605,535.992126 770.246887,530.987793 
	C774.664246,509.192627 770.666992,487.858032 765.422241,466.996094 
	C759.878357,444.943939 749.094177,425.100128 734.947754,407.084686 
	C705.161255,369.151520 665.749329,348.318176 618.525757,342.339386 
	C601.950623,340.240814 584.878784,340.944763 568.343079,344.322723 
	C552.292236,347.601654 536.837585,353.072388 521.715820,360.148346 
	C520.808777,360.407074 520.174194,360.621399 519.539551,360.835724 
	C529.776733,356.279510 539.643250,350.420380 550.312988,347.384674 
	C607.251404,331.184814 660.005798,340.434448 706.924988,376.795593 
	C743.224182,404.926544 764.662903,442.349457 771.395264,488.003967 
	C774.019409,505.799133 773.808167,523.517761 771.033997,541.260681 
	C769.372864,551.884644 767.164062,553.910767 756.411194,553.910461 
	C680.247925,553.908386 604.084595,553.896301 527.921326,553.887390 
	C525.811096,553.887146 523.700867,553.887329 520.619324,553.887329 
	C524.236450,563.457214 530.269287,569.993225 536.336060,576.885864 
z"/>
<path fill="#155CA0" opacity="1.000000" stroke="none" 
	d="
M519.113770,360.837097 
	C520.174194,360.621399 520.808777,360.407074 521.912964,360.444946 
	C522.891663,361.727570 523.623413,362.706696 523.874695,363.796661 
	C525.843201,372.334595 527.581848,380.927429 529.664612,389.436462 
	C531.594055,397.319214 533.922729,405.103394 535.963623,412.960052 
	C538.372925,422.234589 540.661865,431.540283 543.046997,441.199463 
	C543.153992,441.803772 543.216858,442.041077 543.177002,442.204590 
	C543.074219,442.130798 543.300903,442.243256 543.031738,442.301208 
	C542.542725,442.641510 542.322876,442.923798 542.106873,443.156738 
	C542.110718,443.107330 542.208130,443.125458 541.942993,443.198364 
	C541.477905,443.566437 541.278015,443.861603 541.074829,444.117889 
	C541.071533,444.079010 541.149536,444.079590 540.898132,444.161102 
	C540.440674,444.519012 540.234619,444.795410 540.020813,445.039917 
	C540.013000,445.008026 540.072144,445.036591 539.818176,445.118225 
	C539.373779,445.489868 539.183289,445.779907 538.907104,446.295898 
	C538.615662,446.800018 538.340210,446.950867 537.750000,447.049713 
	C537.325867,447.404968 537.146790,447.684998 536.881836,448.202881 
	C536.517517,448.615967 536.239014,448.791229 535.718872,449.047302 
	C535.308716,449.412079 535.140259,449.696045 534.900208,450.214539 
	C534.651367,450.753143 534.388977,450.932892 533.794922,451.082275 
	C533.379395,451.474060 533.210388,451.771851 533.024109,452.040649 
	C533.006775,452.011597 533.071167,452.032410 532.833862,452.141541 
	C532.424011,452.544708 532.251465,452.838745 532.073853,453.095215 
	C532.068787,453.057617 532.140930,453.081268 531.887329,453.166687 
	C531.455505,453.549713 531.277161,453.847260 531.097046,454.086182 
	C531.095154,454.027496 531.140564,454.135773 530.817627,454.124634 
	C529.659790,454.725830 528.824890,455.338196 527.735657,455.705444 
	C526.645142,453.153778 525.569214,450.903046 525.016785,448.530396 
	C523.211548,440.777344 521.753906,432.941742 519.874634,425.207855 
	C516.545288,411.506378 513.098022,397.831451 509.483765,384.202759 
	C508.616791,380.933685 506.900848,377.889740 505.575378,374.742249 
	C505.314423,374.882507 505.053497,375.022736 504.792572,375.162994 
	C505.175995,373.079987 505.559418,370.997009 505.942810,368.914001 
	C510.191193,366.222137 514.439575,363.530304 519.113770,360.837097 
z"/>
<path fill="#213F74" opacity="1.000000" stroke="none" 
	d="
M246.780777,367.232727 
	C247.525848,367.150665 248.270905,367.068634 249.248138,366.888184 
	C267.797882,355.303894 287.833038,348.495300 309.054871,344.924652 
	C310.686798,344.650024 312.330780,344.447113 314.813599,344.206909 
	C318.089874,344.186218 320.521729,344.169464 322.641479,344.349548 
	C315.233368,345.729614 308.137451,346.912842 300.647827,348.094574 
	C297.200073,348.813568 294.053589,349.273102 291.112793,350.313751 
	C286.332977,352.005219 281.687775,354.077026 276.599854,355.999146 
	C273.417786,356.953156 270.659058,358.032043 267.818604,358.814148 
	C259.126953,361.207214 256.804932,367.097748 256.853729,375.661865 
	C257.013489,403.694672 256.531860,431.730927 256.395752,459.766357 
	C256.390259,460.896027 257.120148,462.520691 258.005890,463.007050 
	C258.708954,463.393127 260.544281,462.721985 261.244751,461.948059 
	C266.583771,456.049286 271.767487,450.009979 277.287109,443.836060 
	C282.211304,441.191345 286.847961,438.724976 291.281921,436.541626 
	C268.186493,450.697418 254.240936,470.933563 248.132294,496.911926 
	C247.622421,496.973480 247.330887,497.006439 246.969101,496.659424 
	C246.932159,476.371948 247.005280,456.447754 246.984116,436.523621 
	C246.959579,413.426636 246.852203,390.329681 246.780777,367.232727 
z"/>
<path fill="#1E4481" opacity="1.000000" stroke="none" 
	d="
M432.890320,656.389404 
	C432.631104,655.854553 432.475861,654.791992 432.771973,654.646240 
	C438.354095,651.898071 437.600769,647.607605 437.283752,642.225037 
	C436.595001,630.530396 437.724426,618.741089 437.571899,606.997559 
	C437.485626,600.354675 436.144928,593.737183 435.735535,587.085754 
	C435.522858,583.630188 436.106079,580.125549 436.405334,575.466187 
	C438.636261,578.399475 439.945496,580.120911 441.591614,581.928833 
	C449.596619,594.488770 457.255798,606.967712 464.944305,619.428589 
	C465.894257,620.968140 467.000427,622.411316 467.996887,624.449829 
	C467.685577,625.459473 467.411621,625.918274 467.137634,626.377075 
	C457.428192,638.164551 445.847351,647.828918 432.890320,656.389404 
z"/>
<path fill="#1A5091" opacity="1.000000" stroke="none" 
	d="
M505.628235,368.913391 
	C505.559418,370.997009 505.175995,373.079987 504.792572,375.162994 
	C505.053497,375.022736 505.314423,374.882507 505.575378,374.742249 
	C506.900848,377.889740 508.616791,380.933685 509.483765,384.202759 
	C513.098022,397.831451 516.545288,411.506378 519.874634,425.207855 
	C521.753906,432.941742 523.211548,440.777344 525.016785,448.530396 
	C525.569214,450.903046 526.645142,453.153778 527.611206,456.022095 
	C527.565674,457.453979 527.390381,458.324036 527.167358,459.149597 
	C527.119751,459.105072 527.244995,459.141174 526.979004,459.279358 
	C526.480774,459.946045 526.248474,460.474518 526.010254,461.003479 
	C526.004272,461.003937 526.007324,461.017090 525.792664,461.139313 
	C525.315674,461.489899 525.168091,461.777252 525.077759,462.109497 
	C525.020142,462.095459 525.138306,462.089325 524.902222,462.283844 
	C524.524292,462.854309 524.382507,463.230286 524.253723,463.728088 
	C524.266724,463.849915 524.047546,463.959595 523.830261,464.095886 
	C523.459656,464.530396 523.306396,464.828613 523.103760,465.066589 
	C523.054321,465.006348 523.163269,465.127686 522.911011,465.287231 
	C522.471619,465.990875 522.284607,466.535034 522.049927,467.053528 
	C522.002319,467.027863 522.096130,467.090271 521.792358,467.124023 
	C520.973450,467.729980 520.458435,468.302155 519.573425,468.881866 
	C514.289185,468.038605 514.554077,463.985352 514.012451,460.453979 
	C513.437134,456.702972 513.185974,452.879486 512.314880,449.200958 
	C509.651581,437.954742 506.827118,426.745178 503.930786,415.556213 
	C501.962860,407.953857 499.500488,400.470581 497.773346,392.818054 
	C496.682281,387.983856 496.538147,382.935913 495.976746,377.612854 
	C495.929169,376.750732 495.874115,376.259583 495.819061,375.768463 
	C495.819061,375.768463 495.847137,375.869843 496.057556,375.798370 
	C496.510040,375.464661 496.752167,375.202393 496.994263,374.940155 
	C496.994263,374.940155 496.994385,375.000000 497.282898,374.949646 
	C497.996063,374.467102 498.420715,374.034943 498.845398,373.602783 
	C498.845398,373.602783 498.844879,373.812836 499.016754,373.741211 
	C499.452393,373.411957 499.716156,373.154327 499.979919,372.896729 
	C499.979889,372.896698 499.964813,372.975128 500.167175,372.871094 
	C500.578339,372.499146 500.787140,372.231232 500.995972,371.963318 
	C500.995972,371.963318 501.002441,372.006378 501.275848,371.968384 
	C502.007599,371.602203 502.465942,371.274017 502.924316,370.945862 
	C503.720734,370.268158 504.517181,369.590424 505.628235,368.913391 
z"/>
<path fill="#213F74" opacity="1.000000" stroke="none" 
	d="
M495.168030,443.952087 
	C487.755432,431.902100 480.368652,419.836060 472.894745,407.824188 
	C472.042145,406.453918 470.701294,405.387482 469.287048,403.654633 
	C468.999512,402.428436 469.011780,401.727814 469.024109,401.027161 
	C474.804016,395.084412 480.583923,389.141663 486.750458,383.166992 
	C487.137085,383.135071 487.266693,383.266541 487.174927,383.620239 
	C487.550232,388.969604 487.514191,394.075623 488.580902,398.939758 
	C491.517883,412.332153 494.843719,425.641632 498.188568,438.940460 
	C498.948639,441.962402 498.844574,443.881042 495.168030,443.952087 
z"/>
<path fill="#2D6578" opacity="1.000000" stroke="none" 
	d="
M713.423950,643.122314 
	C717.704163,635.517090 717.504761,633.973511 710.929382,627.393799 
	C697.519287,613.974854 684.115234,600.549683 670.670471,587.165588 
	C665.713867,582.231323 661.448181,581.727356 656.113098,585.799927 
	C638.616882,599.155823 618.953247,604.805908 596.966553,604.257446 
	C576.250000,603.740723 558.460266,596.381287 542.437927,583.881653 
	C540.372498,582.270325 538.752075,580.088318 536.869995,577.848877 
	C547.773010,587.164368 559.695129,595.157043 573.916443,599.205383 
	C602.759521,607.415955 629.516113,603.061768 654.068909,585.766785 
	C662.500977,579.827209 665.671387,580.003723 672.982544,587.312317 
	C686.750793,601.075867 700.526794,614.831848 714.257141,628.633179 
	C719.272461,633.674500 719.059937,638.188904 713.423950,643.122314 
z"/>
<path fill="#2D6578" opacity="1.000000" stroke="none" 
	d="
M468.672943,400.996582 
	C469.011780,401.727814 468.999512,402.428436 468.993713,403.475311 
	C467.397003,402.750336 465.590637,401.889221 464.227081,400.570312 
	C459.242096,395.748474 454.676422,390.461884 449.457458,385.919434 
	C437.056030,375.125702 423.704590,365.612061 408.172302,359.833435 
	C396.520996,355.498657 384.597046,351.896606 371.989929,347.943176 
	C365.795502,347.274902 360.405670,346.631836 355.015839,345.988739 
	C354.469482,345.461548 353.923157,344.934387 353.219177,344.171326 
	C362.523285,345.325897 372.181091,345.933899 381.411255,348.247833 
	C414.009521,356.419922 441.557465,373.392212 464.647919,397.724335 
	C465.767731,398.904388 467.092468,399.889893 468.672943,400.996582 
z"/>
<path fill="#2D6578" opacity="1.000000" stroke="none" 
	d="
M492.906677,647.423096 
	C500.795624,652.109253 508.603851,657.450928 516.829895,662.044373 
	C532.415710,670.747314 548.830322,677.606567 566.626160,680.071960 
	C580.384155,681.978027 594.279114,682.895020 608.446594,684.455200 
	C596.560669,684.082092 584.177551,684.569397 572.154541,682.718201 
	C542.768433,678.193542 516.304016,666.393799 492.906677,647.423096 
z"/>
<path fill="#2D6578" opacity="1.000000" stroke="none" 
	d="
M611.712158,684.598267 
	C613.177551,683.945801 615.022583,683.122314 616.929321,682.937866 
	C651.073547,679.634705 681.515564,667.222107 708.408691,645.984680 
	C709.699402,644.965393 711.131531,644.125122 712.848267,643.151367 
	C702.201355,650.684937 691.712402,659.181396 680.095520,665.653076 
	C659.096191,677.351501 636.134766,683.192322 611.712158,684.598267 
z"/>
<path fill="#2D6578" opacity="1.000000" stroke="none" 
	d="
M467.533203,626.266174 
	C467.411621,625.918274 467.685577,625.459473 468.106842,624.763489 
	C469.434570,625.066895 470.866669,625.343201 471.755585,626.189758 
	C478.809082,632.907654 485.759277,639.734070 492.826691,646.863892 
	C486.166473,641.113403 479.459961,634.981689 472.641785,628.976746 
	C471.290588,627.786682 469.510864,627.083191 467.533203,626.266174 
z"/>
<path fill="#2D6578" opacity="1.000000" stroke="none" 
	d="
M322.953613,344.152710 
	C320.521729,344.169464 318.089874,344.186218 315.285339,344.199707 
	C326.690216,343.794891 338.467743,343.393311 350.654785,343.134155 
	C347.980255,343.758545 344.903381,344.578003 341.810577,344.643188 
	C337.209686,344.740082 332.597534,344.303955 327.118958,344.087769 
	C325.149719,344.104828 324.051666,344.128784 322.953613,344.152710 
z"/>
<path fill="#1E4481" opacity="1.000000" stroke="none" 
	d="
M420.969788,661.915894 
	C421.453735,661.955566 421.937744,661.995361 422.781769,662.092834 
	C418.029205,664.781006 412.916595,667.411499 407.432800,670.082153 
	C407.061584,670.122314 407.020844,669.866272 407.119446,669.471802 
	C411.801941,666.690186 416.385864,664.303040 420.969788,661.915894 
z"/>
<path fill="#1E4481" opacity="1.000000" stroke="none" 
	d="
M428.446045,659.111084 
	C429.287994,658.195129 430.453094,657.250916 431.981018,656.444580 
	C431.152313,657.415894 429.960754,658.249390 428.446045,659.111084 
z"/>
<path fill="#213F74" opacity="1.000000" stroke="none" 
	d="
M487.072693,383.068909 
	C488.065613,381.996094 489.122864,380.989441 490.565002,379.963165 
	C490.949890,379.943512 491.118103,380.085632 491.022491,380.410950 
	C489.706818,381.579712 488.486755,382.423126 487.266693,383.266541 
	C487.266693,383.266541 487.137085,383.135071 487.072693,383.068909 
z"/>
<path fill="#213F74" opacity="1.000000" stroke="none" 
	d="
M495.521149,375.848633 
	C495.874115,376.259583 495.929169,376.750732 495.616272,377.623657 
	C494.526611,378.050964 493.804932,378.096466 493.056335,378.097717 
	C493.029419,378.053467 492.972015,377.967346 492.972046,377.967346 
	C493.722443,377.287842 494.472839,376.608337 495.521149,375.848633 
z"/>
<path fill="#1E4481" opacity="1.000000" stroke="none" 
	d="
M423.464478,662.127319 
	C424.020386,661.487061 424.915558,660.797119 426.203735,660.130127 
	C425.665771,660.794678 424.734772,661.436157 423.464478,662.127319 
z"/>
<path fill="#213F74" opacity="1.000000" stroke="none" 
	d="
M498.538300,373.656952 
	C498.420715,374.034943 497.996063,374.467102 497.256592,374.935364 
	C497.371582,374.551392 497.801392,374.131256 498.538300,373.656952 
z"/>
<path fill="#213F74" opacity="1.000000" stroke="none" 
	d="
M502.622314,370.902588 
	C502.465942,371.274017 502.007599,371.602203 501.256775,371.957916 
	C501.416351,371.610077 501.868347,371.234711 502.622314,370.902588 
z"/>
<path fill="#1E4481" opacity="1.000000" stroke="none" 
	d="
M427.234558,659.951416 
	C427.133911,659.679871 427.368744,659.446838 427.883240,659.161133 
	C427.910278,659.346924 427.712646,659.640747 427.234558,659.951416 
z"/>
<path fill="#213F74" opacity="1.000000" stroke="none" 
	d="
M496.705078,374.969116 
	C496.752167,375.202393 496.510040,375.464661 496.005615,375.806763 
	C495.967499,375.590454 496.191681,375.294250 496.705078,374.969116 
z"/>
<path fill="#213F74" opacity="1.000000" stroke="none" 
	d="
M490.867981,379.869934 
	C490.981598,379.524292 491.177124,379.252197 491.669952,378.972778 
	C491.967255,378.965454 492.052948,379.053741 491.931274,379.254639 
	C491.615051,379.705048 491.384552,379.915070 491.118103,380.085632 
	C491.118103,380.085632 490.949890,379.943512 490.867981,379.869934 
z"/>
<path fill="#213F74" opacity="1.000000" stroke="none" 
	d="
M500.717468,372.003052 
	C500.787140,372.231232 500.578339,372.499146 500.128174,372.862427 
	C500.070892,372.652802 500.254944,372.347778 500.717468,372.003052 
z"/>
<path fill="#213F74" opacity="1.000000" stroke="none" 
	d="
M499.679199,372.906921 
	C499.716156,373.154327 499.452393,373.411957 498.911957,373.733978 
	C498.882996,373.504639 499.130737,373.210876 499.679199,372.906921 
z"/>
<path fill="#213F74" opacity="1.000000" stroke="none" 
	d="
M491.924744,378.920959 
	C492.076416,378.605377 492.270599,378.334229 492.718414,378.015198 
	C492.972015,377.967346 493.029419,378.053467 492.915161,378.281677 
	C492.588806,378.742340 492.339478,378.923645 492.052948,379.053741 
	C492.052948,379.053741 491.967255,378.965454 491.924744,378.920959 
z"/>
<path fill="#1E4481" opacity="1.000000" stroke="none" 
	d="
M491.931274,379.254639 
	C492.339478,378.923645 492.588806,378.742340 492.942047,378.325897 
	C493.804932,378.096466 494.526611,378.050964 495.608826,377.994659 
	C496.538147,382.935913 496.682281,387.983856 497.773346,392.818054 
	C499.500488,400.470581 501.962860,407.953857 503.930786,415.556213 
	C506.827118,426.745178 509.651581,437.954742 512.314880,449.200958 
	C513.185974,452.879486 513.437134,456.702972 514.012451,460.453979 
	C514.554077,463.985352 514.289185,468.038605 519.632263,469.201965 
	C520.099182,469.727264 520.137390,469.939972 520.130676,470.092987 
	C520.085754,470.033264 520.207520,470.119965 519.977722,470.276855 
	C519.534607,470.934052 519.321289,471.434357 518.809082,472.133911 
	C518.141052,473.666626 517.225159,475.129028 517.503540,476.309845 
	C518.395935,480.094910 519.934875,483.725861 520.857178,487.505859 
	C524.118286,500.871063 527.448975,514.226257 530.308838,527.679749 
	C532.002930,535.648987 536.144165,543.428528 533.112061,551.972656 
	C528.665649,552.217163 524.219299,552.461670 519.384338,552.848083 
	C512.621704,539.339783 510.028717,524.981323 509.874634,509.924530 
	C509.642090,487.203033 504.763733,465.380096 495.272278,444.288300 
	C498.844574,443.881042 498.948639,441.962402 498.188568,438.940460 
	C494.843719,425.641632 491.517883,412.332153 488.580902,398.939758 
	C487.514191,394.075623 487.550232,388.969604 487.174927,383.620239 
	C488.486755,382.423126 489.706818,381.579712 491.022491,380.410950 
	C491.384552,379.915070 491.615051,379.705048 491.931274,379.254639 
z"/>
<path fill="#145FA4" opacity="1.000000" stroke="none" 
	d="
M354.790710,346.283051 
	C360.405670,346.631836 365.795502,347.274902 371.587738,347.937103 
	C372.326843,368.893250 372.503845,389.835052 373.132812,410.763306 
	C373.261047,415.029236 372.186737,420.241608 377.191315,422.916321 
	C375.756653,425.078308 374.393768,427.132111 372.700745,429.411774 
	C364.918579,427.720093 357.466522,425.802521 350.014496,423.884979 
	C352.468689,420.405731 352.056885,416.848022 351.410461,412.753601 
	C350.513458,407.071747 351.034668,401.161133 351.006927,395.348175 
	C350.972839,388.202484 351.138184,381.053162 350.964172,373.911560 
	C350.737122,364.593750 350.715515,355.341217 354.790710,346.283051 
z"/>
<path fill="#2D6578" opacity="1.000000" stroke="none" 
	d="
M428.092346,528.431885 
	C426.956146,532.091492 425.894623,535.357056 424.640259,538.546692 
	C422.176941,544.810486 419.606354,551.032104 416.771851,557.859863 
	C413.209564,562.503540 409.955566,566.558594 406.774109,570.279846 
	C408.102936,568.190247 409.428650,566.479614 410.605011,564.671753 
	C426.699005,539.939087 432.466248,513.612061 422.925629,484.905945 
	C418.540588,471.712036 410.826935,460.598297 401.752686,450.255249 
	C401.901825,450.104095 402.200897,449.802551 402.200897,449.802551 
	C413.941010,460.650146 421.402924,474.046021 425.956238,489.248749 
	C429.781921,502.022125 429.878021,514.948303 428.092346,528.431885 
z"/>
<path fill="#2D6578" opacity="1.000000" stroke="none" 
	d="
M349.595978,423.888062 
	C357.466522,425.802521 364.918579,427.720093 372.703430,429.782654 
	C381.953125,435.708954 390.869934,441.490173 399.837585,447.692322 
	C399.888397,448.113190 399.581329,448.428375 399.274384,448.287537 
	C387.042480,437.708527 373.569977,430.302277 358.014099,426.735992 
	C341.438812,422.935944 325.120087,423.987732 308.879578,428.465393 
	C308.847168,428.260681 308.787262,427.850739 309.046722,427.585022 
	C315.888245,425.849823 322.470306,424.380341 329.052368,422.910828 
	C335.760742,423.237610 342.469086,423.564392 349.595978,423.888062 
z"/>
<path fill="#2D6578" opacity="1.000000" stroke="none" 
	d="
M400.041718,447.955383 
	C400.777039,448.291534 401.359070,448.785492 402.070984,449.540985 
	C402.200897,449.802551 401.901825,450.104095 401.497803,450.122009 
	C400.589630,449.569397 400.085480,448.998901 399.581329,448.428375 
	C399.581329,448.428375 399.888397,448.113190 400.041718,447.955383 
z"/>
<path fill="#1A5091" opacity="1.000000" stroke="none" 
	d="
M406.701599,570.613647 
	C409.955566,566.558594 413.209564,562.503540 416.695251,558.213135 
	C419.260712,558.956360 420.404602,560.166016 418.895844,562.927490 
	C418.084473,564.412476 418.039429,566.439819 418.035126,568.223328 
	C417.982239,590.152527 417.718170,612.087402 418.137268,634.008667 
	C418.309753,643.029846 419.992096,652.022217 420.978699,661.471802 
	C416.385864,664.303040 411.801941,666.690186 407.063354,669.354980 
	C404.511505,670.380676 402.114319,671.128784 399.428864,671.585327 
	C400.162933,667.647217 404.936646,664.387878 401.954132,660.454102 
	C398.634583,656.075806 399.021820,651.505066 399.011658,646.757874 
	C398.984589,634.129211 398.993103,621.500488 399.006897,608.871765 
	C399.012695,603.555603 398.199097,598.038879 399.366577,592.984863 
	C400.353058,588.714294 400.003418,585.756958 397.150024,582.638428 
	C400.445251,578.470215 403.564301,574.576660 406.680847,570.664062 
	C406.678284,570.644958 406.701630,570.613647 406.701599,570.613647 
z"/>
<path fill="#1169B1" opacity="1.000000" stroke="none" 
	d="
M246.587402,366.850830 
	C246.852203,390.329681 246.959579,413.426636 246.984116,436.523621 
	C247.005280,456.447754 246.932159,476.371948 246.733337,496.996735 
	C245.329651,513.772400 245.166473,529.659851 250.967712,545.180298 
	C255.772385,558.034546 263.130035,569.208618 272.560944,578.822205 
	C281.529572,587.964600 292.229797,595.469238 304.507324,599.182007 
	C315.774780,602.589294 327.640015,604.291992 339.363983,605.790283 
	C344.414490,606.435730 349.772919,604.671814 355.094299,604.341797 
	C355.677917,605.878418 356.584106,607.079346 356.573853,608.272339 
	C356.468079,620.543701 356.173706,632.813293 356.014435,645.084473 
	C355.895935,654.216431 356.318237,663.380554 355.658234,672.469238 
	C355.360138,676.574036 356.176849,678.756531 359.925629,680.068726 
	C360.725433,680.348694 361.286621,681.310486 361.957733,681.958130 
	C353.517151,682.637878 345.064026,684.026611 336.638092,683.877563 
	C294.726471,683.136414 257.501434,669.767334 225.510956,642.188660 
	C199.539200,619.798645 182.123337,591.998169 172.459473,559.363037 
	C168.067795,544.532227 166.088898,529.104614 166.068893,513.614380 
	C165.943649,416.632111 166.001450,319.649628 165.997757,222.667221 
	C165.997421,213.570023 168.343292,211.061508 177.451370,211.025055 
	C197.114166,210.946396 216.777573,210.964401 236.440536,211.015076 
	C243.866959,211.034225 245.963654,213.178833 245.966034,220.544495 
	C245.981125,267.036072 245.968430,313.527618 245.992065,360.019196 
	C245.993164,362.169159 246.254105,364.319031 246.587402,366.850830 
z"/>
<path fill="#145FA4" opacity="1.000000" stroke="none" 
	d="
M362.372559,681.972534 
	C361.286621,681.310486 360.725433,680.348694 359.925629,680.068726 
	C356.176849,678.756531 355.360138,676.574036 355.658234,672.469238 
	C356.318237,663.380554 355.895935,654.216431 356.014435,645.084473 
	C356.173706,632.813293 356.468079,620.543701 356.573853,608.272339 
	C356.584106,607.079346 355.677917,605.878418 355.455750,604.243652 
	C364.799347,600.216919 373.884308,596.627686 382.970886,593.434875 
	C382.649567,601.596069 382.114258,609.359131 382.047577,617.126160 
	C381.904633,633.773438 382.007874,650.422791 382.000244,667.071289 
	C381.998596,670.685059 381.954712,674.298828 381.930267,677.912598 
	C375.549316,679.270691 369.168365,680.628784 362.372559,681.972534 
z"/>
<path fill="#185497" opacity="1.000000" stroke="none" 
	d="
M382.302917,677.871338 
	C381.954712,674.298828 381.998596,670.685059 382.000244,667.071289 
	C382.007874,650.422791 381.904633,633.773438 382.047577,617.126160 
	C382.114258,609.359131 382.649567,601.596069 383.197601,593.182617 
	C386.523132,589.915771 389.623596,587.297485 392.819885,584.780273 
	C392.915710,584.881287 392.697449,584.708252 393.009674,584.670166 
	C393.834778,584.021118 394.347687,583.410156 394.897278,582.874634 
	C394.933990,582.950134 394.826630,582.821106 395.182068,582.874146 
	C396.016296,582.922546 396.495087,582.917847 396.973877,582.913147 
	C400.003418,585.756958 400.353058,588.714294 399.366577,592.984863 
	C398.199097,598.038879 399.012695,603.555603 399.006897,608.871765 
	C398.993103,621.500488 398.984589,634.129211 399.011658,646.757874 
	C399.021820,651.505066 398.634583,656.075806 401.954132,660.454102 
	C404.936646,664.387878 400.162933,667.647217 399.062378,671.642578 
	C393.548004,673.937744 388.111786,675.883850 382.302917,677.871338 
z"/>
<path fill="#185497" opacity="1.000000" stroke="none" 
	d="
M329.011169,422.515198 
	C322.470306,424.380341 315.888245,425.849823 308.667542,427.618408 
	C306.018616,428.284637 304.008301,428.651764 302.072754,428.624573 
	C301.885193,424.388000 301.422577,420.547333 301.393494,416.703339 
	C301.220551,393.834656 301.147888,370.965210 301.041504,348.096039 
	C308.137451,346.912842 315.233368,345.729614 322.641479,344.349579 
	C324.051666,344.128784 325.149719,344.104828 326.658936,344.116241 
	C327.449646,346.762909 327.819489,349.375702 328.212341,351.984985 
	C328.456512,353.606964 328.959564,355.223022 328.964508,356.842865 
	C329.018860,374.667023 328.999695,392.491364 328.996460,410.315674 
	C328.995728,414.250305 328.979248,418.184906 329.011169,422.515198 
z"/>
<path fill="#1169B1" opacity="1.000000" stroke="none" 
	d="
M543.002991,440.832489 
	C540.661865,431.540283 538.372925,422.234589 535.963623,412.960052 
	C533.922729,405.103394 531.594055,397.319214 529.664612,389.436462 
	C527.581848,380.927429 525.843201,372.334595 523.874695,363.796661 
	C523.623413,362.706696 522.891663,361.727570 522.185303,360.400513 
	C536.837585,353.072388 552.292236,347.601654 568.343079,344.322723 
	C584.878784,340.944763 601.950623,340.240814 618.525757,342.339386 
	C665.749329,348.318176 705.161255,369.151520 734.947754,407.084686 
	C749.094177,425.100128 759.878357,444.943939 765.422241,466.996094 
	C770.666992,487.858032 774.664246,509.192627 770.246887,530.987793 
	C769.232605,535.992126 768.741577,541.104248 768.058105,546.173340 
	C767.522827,550.143799 765.199280,551.997620 761.300293,552.023193 
	C756.803772,552.052673 752.306946,552.047485 747.810242,552.046082 
	C687.853271,552.027649 627.896362,552.007202 567.534424,551.608948 
	C566.592163,546.526184 566.434082,541.737305 565.410400,537.141174 
	C564.394531,532.580017 562.108521,528.302734 561.081421,523.742920 
	C558.628296,512.852539 556.665833,501.852722 554.351013,490.929779 
	C553.088928,484.974152 551.512512,479.085083 550.538208,473.137268 
	C592.077454,473.082947 633.156433,473.072937 674.235229,472.989777 
	C676.489319,472.985229 678.742310,472.371552 681.205444,471.779541 
	C681.235657,470.264343 681.444214,468.755127 680.813721,467.799255 
	C676.796631,461.709015 673.120728,455.267273 668.280273,449.888031 
	C664.664062,445.869171 659.466187,443.273468 654.983032,440.024933 
	C654.993469,440.005798 654.959167,440.033020 654.906494,439.698303 
	C647.299561,431.853668 638.289917,427.226471 627.497803,425.486694 
	C626.670044,425.224396 626.074707,425.145172 625.384033,425.140259 
	C625.288696,425.214539 625.127930,425.034149 624.802368,424.793823 
	C623.422852,424.440613 622.368896,424.327728 621.217529,424.294495 
	C621.120056,424.374146 620.940979,424.197327 620.839722,423.819824 
	C614.877563,422.295715 609.031738,420.318420 603.152161,420.212799 
	C595.809082,420.080872 588.394958,421.215881 581.101318,422.371063 
	C578.283630,422.817291 575.712097,424.818054 572.953552,426.216370 
	C572.878723,426.322205 572.652527,426.195496 572.214355,426.137726 
	C570.227417,426.790253 568.678711,427.500549 567.116577,428.168182 
	C567.103149,428.125519 567.186707,428.157349 566.772217,428.104126 
	C562.035278,429.849182 557.561523,431.363373 553.447693,433.553528 
	C551.028137,434.841644 549.180237,437.203522 547.123718,439.058319 
	C547.172180,439.034241 547.221558,439.130463 546.943237,439.190063 
	C546.463196,439.555206 546.261414,439.860748 545.946960,440.374939 
	C545.597595,440.822479 545.311157,440.938782 544.649048,440.877441 
	C543.883057,440.825775 543.442993,440.829132 543.002991,440.832489 
z"/>
<path fill="#20649C" opacity="1.000000" stroke="none" 
	d="
M550.077881,473.166016 
	C551.512512,479.085083 553.088928,484.974152 554.351013,490.929779 
	C556.665833,501.852722 558.628296,512.852539 561.081421,523.742920 
	C562.108521,528.302734 564.394531,532.580017 565.410400,537.141174 
	C566.434082,541.737305 566.592163,546.526184 567.066040,551.598328 
	C561.017761,551.965210 555.032959,551.964417 548.621094,551.598022 
	C551.462769,546.832520 548.023254,543.102661 547.057190,539.081055 
	C543.960144,526.187927 540.945435,513.274353 538.007690,500.343933 
	C535.952271,491.297241 534.074768,482.210114 532.572754,473.112488 
	C538.710999,473.111298 544.394470,473.138672 550.077881,473.166016 
z"/>
<path fill="#1A5091" opacity="1.000000" stroke="none" 
	d="
M532.117859,473.141052 
	C534.074768,482.210114 535.952271,491.297241 538.007690,500.343933 
	C540.945435,513.274353 543.960144,526.187927 547.057190,539.081055 
	C548.023254,543.102661 551.462769,546.832520 548.161011,551.586731 
	C543.424927,551.960693 538.721863,551.980347 533.565430,551.986328 
	C536.144165,543.428528 532.002930,535.648987 530.308838,527.679749 
	C527.448975,514.226257 524.118286,500.871063 520.857178,487.505859 
	C519.934875,483.725861 518.395935,480.094910 517.503540,476.309845 
	C517.225159,475.129028 518.141052,473.666626 519.153931,471.913910 
	C520.018372,471.332733 520.239197,471.170807 520.664307,471.047455 
	C520.868713,471.086029 521.130859,471.409027 520.979797,471.756897 
	C522.373901,472.673828 523.895081,473.620850 525.469971,473.720551 
	C527.664917,473.859497 529.899963,473.364655 532.117859,473.141052 
z"/>
<path fill="#FBC520" opacity="1.000000" stroke="none" 
	d="
M620.940979,424.197327 
	C620.940979,424.197327 621.120056,424.374146 621.522705,424.562317 
	C622.992859,424.845032 624.060425,424.939575 625.127930,425.034119 
	C625.127930,425.034149 625.288696,425.214539 625.603699,425.427795 
	C626.379578,425.731750 626.840454,425.822449 627.538330,426.156128 
	C636.836670,430.943726 645.897888,435.488373 654.959167,440.033020 
	C654.959167,440.033020 654.993469,440.005798 655.113037,440.331970 
	C665.430969,448.993530 674.427673,458.295990 680.467651,471.397095 
	C677.515503,471.397095 675.554382,471.396698 673.593201,471.397156 
	C631.930420,471.407074 590.267639,471.396667 548.604858,471.443329 
	C539.617371,471.453369 530.630127,471.668915 521.619019,471.661133 
	C521.475525,471.359467 521.320679,471.318329 521.130859,471.409027 
	C521.130859,471.409027 520.868713,471.086029 520.629456,470.897400 
	C520.305908,470.519745 520.244995,470.323486 520.207520,470.119965 
	C520.207520,470.119965 520.085754,470.033264 520.420532,469.965240 
	C521.202332,468.961578 521.649231,468.025940 522.096130,467.090271 
	C522.096130,467.090271 522.002319,467.027863 522.314331,466.911438 
	C522.805298,466.239227 522.984253,465.683472 523.163269,465.127686 
	C523.163269,465.127686 523.054321,465.006348 523.369873,464.985229 
	C523.806152,464.629242 523.926880,464.294434 524.047607,463.959595 
	C524.047546,463.959595 524.266724,463.849915 524.522827,463.559601 
	C524.898682,462.875946 525.018494,462.482635 525.138306,462.089325 
	C525.138306,462.089325 525.020142,462.095459 525.329163,462.028778 
	C525.761230,461.647095 525.884277,461.332092 526.007324,461.017090 
	C526.007324,461.017090 526.004272,461.003937 526.275146,460.868408 
	C526.779053,460.202332 527.012024,459.671753 527.244995,459.141174 
	C527.244995,459.141174 527.119751,459.105072 527.470581,459.024353 
	C528.927734,457.341034 530.034119,455.738403 531.140564,454.135773 
	C531.140564,454.135773 531.095154,454.027496 531.369141,454.027924 
	C531.809021,453.712646 531.974976,453.396973 532.140930,453.081268 
	C532.140930,453.081268 532.068787,453.057617 532.347778,453.033203 
	C532.774902,452.683319 532.923035,452.357849 533.071167,452.032410 
	C533.071167,452.032410 533.006775,452.011597 533.278076,451.956329 
	C533.713379,451.596802 533.877380,451.292542 534.041443,450.988281 
	C534.388977,450.932892 534.651367,450.753143 535.145142,450.137390 
	C535.627991,449.539368 535.794250,449.252930 535.960510,448.966492 
	C536.239014,448.791229 536.517517,448.615967 537.131104,448.134033 
	C537.642517,447.543091 537.818848,447.258789 537.995117,446.974487 
	C538.340210,446.950867 538.615662,446.800018 539.169434,446.225159 
	C539.702393,445.631134 539.887268,445.333862 540.072144,445.036591 
	C540.072144,445.036591 540.013000,445.008026 540.299683,445.001740 
	C540.774109,444.690186 540.961853,444.384888 541.149536,444.079590 
	C541.149536,444.079590 541.071533,444.079010 541.349487,444.057617 
	C541.821045,443.732605 542.014587,443.429047 542.208130,443.125458 
	C542.208130,443.125458 542.110718,443.107330 542.387390,443.115509 
	C542.876343,442.830231 543.088623,442.536743 543.300903,442.243256 
	C543.300903,442.243256 543.074219,442.130798 543.460876,442.157867 
	C544.223328,441.767456 544.599121,441.349945 544.974976,440.932434 
	C545.311157,440.938782 545.597595,440.822479 546.229736,440.322296 
	C546.823914,439.750854 547.022766,439.440674 547.221558,439.130463 
	C547.221558,439.130463 547.172180,439.034241 547.474487,439.035278 
	C554.246765,435.410004 560.716736,431.783661 567.186707,428.157349 
	C567.186707,428.157349 567.103149,428.125519 567.486938,428.168091 
	C569.464661,427.538940 571.058594,426.867218 572.652527,426.195496 
	C572.652527,426.195496 572.878723,426.322205 573.351685,426.235474 
	C589.359314,421.374512 605.091492,421.369049 620.940979,424.197327 
z"/>
<path fill="#2D6578" opacity="1.000000" stroke="none" 
	d="
M530.817627,454.124634 
	C530.034119,455.738403 528.927734,457.341034 527.518188,459.068878 
	C527.390381,458.324036 527.565674,457.453979 527.865479,456.267212 
	C528.824890,455.338196 529.659790,454.725830 530.817627,454.124634 
z"/>
<path fill="#2D6578" opacity="1.000000" stroke="none" 
	d="
M544.649048,440.877441 
	C544.599121,441.349945 544.223328,441.767456 543.563660,442.231659 
	C543.216858,442.041077 543.153992,441.803772 543.046997,441.199463 
	C543.442993,440.829132 543.883057,440.825775 544.649048,440.877441 
z"/>
<path fill="#2D6578" opacity="1.000000" stroke="none" 
	d="
M540.898132,444.161102 
	C540.961853,444.384888 540.774109,444.690186 540.307495,445.033630 
	C540.234619,444.795410 540.440674,444.519012 540.898132,444.161102 
z"/>
<path fill="#2D6578" opacity="1.000000" stroke="none" 
	d="
M543.031738,442.301208 
	C543.088623,442.536743 542.876343,442.830231 542.383545,443.164917 
	C542.322876,442.923798 542.542725,442.641510 543.031738,442.301208 
z"/>
<path fill="#2D6578" opacity="1.000000" stroke="none" 
	d="
M541.942993,443.198364 
	C542.014587,443.429047 541.821045,443.732605 541.352783,444.096497 
	C541.278015,443.861603 541.477905,443.566437 541.942993,443.198364 
z"/>
<path fill="#2D6578" opacity="1.000000" stroke="none" 
	d="
M535.718872,449.047302 
	C535.794250,449.252930 535.627991,449.539368 535.216797,449.902893 
	C535.140259,449.696045 535.308716,449.412079 535.718872,449.047302 
z"/>
<path fill="#2D6578" opacity="1.000000" stroke="none" 
	d="
M539.818176,445.118225 
	C539.887268,445.333862 539.702393,445.631134 539.255127,445.999146 
	C539.183289,445.779907 539.373779,445.489868 539.818176,445.118225 
z"/>
<path fill="#2D6578" opacity="1.000000" stroke="none" 
	d="
M537.750000,447.049713 
	C537.818848,447.258789 537.642517,447.543091 537.216919,447.896179 
	C537.146790,447.684998 537.325867,447.404968 537.750000,447.049713 
z"/>
<path fill="#2D6578" opacity="1.000000" stroke="none" 
	d="
M531.887329,453.166687 
	C531.974976,453.396973 531.809021,453.712646 531.370972,454.086609 
	C531.277161,453.847260 531.455505,453.549713 531.887329,453.166687 
z"/>
<path fill="#2D6578" opacity="1.000000" stroke="none" 
	d="
M532.833862,452.141510 
	C532.923035,452.357849 532.774902,452.683319 532.352783,453.070801 
	C532.251465,452.838745 532.424011,452.544708 532.833862,452.141510 
z"/>
<path fill="#2D6578" opacity="1.000000" stroke="none" 
	d="
M533.794922,451.082275 
	C533.877380,451.292542 533.713379,451.596802 533.295410,451.985352 
	C533.210388,451.771851 533.379395,451.474060 533.794922,451.082275 
z"/>
<path fill="#FDC51E" opacity="1.000000" stroke="none" 
	d="
M399.274384,448.287537 
	C400.085480,448.998901 400.589630,449.569397 401.348694,450.273132 
	C410.826935,460.598297 418.540588,471.712036 422.925629,484.905945 
	C432.466248,513.612061 426.699005,539.939087 410.605011,564.671753 
	C409.428650,566.479614 408.102936,568.190247 406.774139,570.279846 
	C406.701630,570.613647 406.678284,570.644958 406.368835,570.774780 
	C402.315125,574.876770 398.570862,578.848938 394.826599,582.821106 
	C394.826630,582.821106 394.933990,582.950134 394.595428,582.935120 
	C393.737061,583.516113 393.217255,584.112183 392.697449,584.708252 
	C392.697449,584.708252 392.915710,584.881287 392.474609,584.834839 
	C377.390930,595.673157 361.180054,602.215210 342.790863,603.327820 
	C303.218719,605.722168 266.134827,581.565552 252.625824,544.455627 
	C246.983154,528.954895 245.943268,513.096252 248.352524,496.900085 
	C254.240936,470.933563 268.186493,450.697418 291.439697,436.551270 
	C291.800140,436.277893 291.954803,436.002747 292.317535,435.955994 
	C298.090851,433.496216 303.501434,431.083191 308.912018,428.670135 
	C325.120087,423.987732 341.438812,422.935944 358.014099,426.735992 
	C373.569977,430.302277 387.042480,437.708527 399.274384,448.287537 
z"/>
<path fill="#1B4C8B" opacity="1.000000" stroke="none" 
	d="
M291.954803,436.002747 
	C291.954803,436.002747 291.800140,436.277893 291.642395,436.268250 
	C286.847961,438.724976 282.211304,441.191345 277.163208,443.539276 
	C276.470642,440.729034 278.328949,437.688568 275.334198,435.372528 
	C275.033386,435.139862 275.749512,433.598236 275.987030,432.662415 
	C276.659821,430.011749 277.879028,427.366577 277.909698,424.708008 
	C278.092316,408.879944 278.005951,393.048676 277.991119,377.218506 
	C277.989532,375.556030 277.877136,373.893127 277.795868,372.231384 
	C277.530884,366.816772 277.256531,361.402649 276.985779,355.988281 
	C281.687775,354.077026 286.332977,352.005219 291.112793,350.313751 
	C294.053589,349.273102 297.200073,348.813568 300.647858,348.094574 
	C301.147888,370.965210 301.220551,393.834656 301.393494,416.703339 
	C301.422577,420.547333 301.885193,424.388000 301.838989,428.870422 
	C298.338593,431.674652 295.146698,433.838684 291.954803,436.002747 
z"/>
<path fill="#1E4481" opacity="1.000000" stroke="none" 
	d="
M276.599854,355.999146 
	C277.256531,361.402649 277.530884,366.816772 277.795868,372.231384 
	C277.877136,373.893127 277.989532,375.556030 277.991119,377.218506 
	C278.005951,393.048676 278.092316,408.879944 277.909698,424.708008 
	C277.879028,427.366577 276.659821,430.011749 275.987030,432.662415 
	C275.749512,433.598236 275.033386,435.139862 275.334198,435.372528 
	C278.328949,437.688568 276.470642,440.729034 276.875671,443.717621 
	C271.767487,450.009979 266.583771,456.049286 261.244751,461.948059 
	C260.544281,462.721985 258.708954,463.393127 258.005890,463.007050 
	C257.120148,462.520691 256.390259,460.896027 256.395752,459.766357 
	C256.531860,431.730927 257.013489,403.694672 256.853729,375.661865 
	C256.804932,367.097748 259.126953,361.207214 267.818604,358.814148 
	C270.659058,358.032043 273.417786,356.953156 276.599854,355.999146 
z"/>
<path fill="#2D6578" opacity="1.000000" stroke="none" 
	d="
M248.132294,496.911926 
	C245.943268,513.096252 246.983154,528.954895 252.625824,544.455627 
	C266.134827,581.565552 303.218719,605.722168 342.790863,603.327820 
	C361.180054,602.215210 377.390930,595.673157 392.378784,584.733826 
	C389.623596,587.297485 386.523132,589.915771 383.195984,592.786255 
	C373.884308,596.627686 364.799347,600.216919 355.352905,603.904297 
	C349.772919,604.671814 344.414490,606.435730 339.363983,605.790283 
	C327.640015,604.291992 315.774780,602.589294 304.507324,599.182007 
	C292.229797,595.469238 281.529572,587.964600 272.560944,578.822205 
	C263.130035,569.208618 255.772385,558.034546 250.967712,545.180298 
	C245.166473,529.659851 245.329651,513.772400 246.801697,497.360046 
	C247.330887,497.006439 247.622421,496.973480 248.132294,496.911926 
z"/>
<path fill="#2D6578" opacity="1.000000" stroke="none" 
	d="
M521.792358,467.124023 
	C521.649231,468.025940 521.202332,468.961578 520.465454,470.024963 
	C520.137390,469.939972 520.099182,469.727264 520.002197,469.194458 
	C520.458435,468.302155 520.973450,467.729980 521.792358,467.124023 
z"/>
<path fill="#2D6578" opacity="1.000000" stroke="none" 
	d="
M526.979004,459.279358 
	C527.012024,459.671753 526.779053,460.202332 526.281128,460.867950 
	C526.248474,460.474518 526.480774,459.946045 526.979004,459.279358 
z"/>
<path fill="#2D6578" opacity="1.000000" stroke="none" 
	d="
M522.911011,465.287231 
	C522.984253,465.683472 522.805298,466.239227 522.361938,466.937073 
	C522.284607,466.535034 522.471619,465.990875 522.911011,465.287231 
z"/>
<path fill="#2D6578" opacity="1.000000" stroke="none" 
	d="
M523.830322,464.095886 
	C523.926880,464.294434 523.806152,464.629242 523.419312,465.045471 
	C523.306396,464.828613 523.459656,464.530396 523.830322,464.095886 
z"/>
<path fill="#2D6578" opacity="1.000000" stroke="none" 
	d="
M524.902222,462.283844 
	C525.018494,462.482635 524.898682,462.875946 524.509766,463.437744 
	C524.382507,463.230286 524.524292,462.854309 524.902222,462.283844 
z"/>
<path fill="#2D6578" opacity="1.000000" stroke="none" 
	d="
M525.792664,461.139313 
	C525.884277,461.332092 525.761230,461.647095 525.386719,462.042847 
	C525.168091,461.777252 525.315674,461.489899 525.792664,461.139313 
z"/>
<path fill="#2D6578" opacity="1.000000" stroke="none" 
	d="
M519.977722,470.276855 
	C520.244995,470.323486 520.305908,470.519745 520.425049,470.858826 
	C520.239197,471.170807 520.018372,471.332733 519.452759,471.714661 
	C519.321289,471.434357 519.534607,470.934052 519.977722,470.276855 
z"/>
<path fill="#213F74" opacity="1.000000" stroke="none" 
	d="
M292.317535,435.955994 
	C295.146698,433.838684 298.338593,431.674652 301.764221,429.264771 
	C304.008301,428.651764 306.018616,428.284637 308.408081,427.884094 
	C308.787262,427.850739 308.847168,428.260681 308.879578,428.465393 
	C303.501434,431.083191 298.090851,433.496216 292.317535,435.955994 
z"/>
<path fill="#2D6578" opacity="1.000000" stroke="none" 
	d="
M395.182068,582.874146 
	C398.570862,578.848938 402.315125,574.876770 406.371368,570.793945 
	C403.564301,574.576660 400.445251,578.470215 397.150024,582.638428 
	C396.495087,582.917847 396.016296,582.922546 395.182068,582.874146 
z"/>
<path fill="#2D6578" opacity="1.000000" stroke="none" 
	d="
M393.009644,584.670166 
	C393.217255,584.112183 393.737061,583.516113 394.558716,582.859619 
	C394.347687,583.410156 393.834778,584.021118 393.009644,584.670166 
z"/>
<path fill="#20649C" opacity="1.000000" stroke="none" 
	d="
M521.642761,471.789795 
	C530.630127,471.668915 539.617371,471.453369 548.604858,471.443329 
	C590.267639,471.396667 631.930420,471.407074 673.593201,471.397156 
	C675.554382,471.396698 677.515503,471.397095 680.467651,471.397095 
	C674.427673,458.295990 665.430969,448.993530 655.102661,440.351135 
	C659.466187,443.273468 664.664062,445.869171 668.280273,449.888031 
	C673.120728,455.267273 676.796631,461.709015 680.813721,467.799255 
	C681.444214,468.755127 681.235657,470.264343 680.738220,471.751953 
	C627.255127,471.920715 574.448975,471.855255 521.642761,471.789795 
z"/>
<path fill="#2D6578" opacity="1.000000" stroke="none" 
	d="
M521.619019,471.661133 
	C574.448975,471.855255 627.255127,471.920715 680.528564,472.013794 
	C678.742310,472.371552 676.489319,472.985229 674.235229,472.989777 
	C633.156433,473.072937 592.077454,473.082947 550.538208,473.137268 
	C544.394470,473.138672 538.710999,473.111298 532.572754,473.112488 
	C529.899963,473.364655 527.664917,473.859497 525.469971,473.720551 
	C523.895081,473.620850 522.373901,472.673828 520.979797,471.756897 
	C521.320679,471.318329 521.475525,471.359467 521.619019,471.661133 
z"/>
<path fill="#155CA0" opacity="1.000000" stroke="none" 
	d="
M620.839722,423.819824 
	C605.091492,421.369049 589.359314,421.374512 573.426514,426.129639 
	C575.712097,424.818054 578.283630,422.817291 581.101318,422.371063 
	C588.394958,421.215881 595.809082,420.080872 603.152161,420.212799 
	C609.031738,420.318420 614.877563,422.295715 620.839722,423.819824 
z"/>
<path fill="#20649C" opacity="1.000000" stroke="none" 
	d="
M654.906494,439.698303 
	C645.897888,435.488373 636.836670,430.943726 627.648438,426.100403 
	C627.521423,425.801697 627.730103,425.669739 627.730103,425.669739 
	C638.289917,427.226471 647.299561,431.853668 654.906494,439.698303 
z"/>
<path fill="#155CA0" opacity="1.000000" stroke="none" 
	d="
M566.772217,428.104126 
	C560.716736,431.783661 554.246765,435.410004 547.426025,439.059357 
	C549.180237,437.203522 551.028137,434.841644 553.447693,433.553528 
	C557.561523,431.363373 562.035278,429.849182 566.772217,428.104126 
z"/>
<path fill="#155CA0" opacity="1.000000" stroke="none" 
	d="
M572.214355,426.137726 
	C571.058594,426.867218 569.464661,427.538940 567.500366,428.210754 
	C568.678711,427.500549 570.227417,426.790253 572.214355,426.137726 
z"/>
<path fill="#155CA0" opacity="1.000000" stroke="none" 
	d="
M624.802368,424.793823 
	C624.060425,424.939575 622.992859,424.845032 621.620117,424.482666 
	C622.368896,424.327728 623.422852,424.440613 624.802368,424.793823 
z"/>
<path fill="#155CA0" opacity="1.000000" stroke="none" 
	d="
M627.497803,425.486694 
	C627.730103,425.669739 627.521423,425.801697 627.411377,425.857422 
	C626.840454,425.822449 626.379578,425.731750 625.698975,425.353516 
	C626.074707,425.145172 626.670044,425.224396 627.497803,425.486694 
z"/>
<path fill="#2D6578" opacity="1.000000" stroke="none" 
	d="
M546.943237,439.190063 
	C547.022766,439.440674 546.823914,439.750854 546.342407,440.113647 
	C546.261414,439.860748 546.463196,439.555206 546.943237,439.190063 
z"/>
</svg>